<svg width="35" height="36" viewBox="0 0 35 36" fill="none" xmlns="http://www.w3.org/2000/svg">
<path d="M10.9438 26.75C12.152 26.75 13.1313 27.7294 13.1313 28.9375C13.1313 30.1456 12.152 31.125 10.9438 31.125C9.73572 31.125 8.75635 30.1456 8.75635 28.9375C8.75635 27.7294 9.73572 26.75 10.9438 26.75Z" stroke="#162D42" stroke-width="2.1875"/>
<path d="M24.0688 26.7501C25.277 26.7501 26.2563 27.7295 26.2563 28.9376C26.2563 30.1457 25.277 31.1251 24.0688 31.1251C22.8607 31.1251 21.8813 30.1457 21.8813 28.9376C21.8813 27.7295 22.8607 26.7501 24.0688 26.7501Z" stroke="#162D42" stroke-width="2.1875"/>
<path d="M3.30378 5.00893L3.66655 3.97709H3.66655L3.30378 5.00893ZM3.28562 3.84316C2.71576 3.64281 2.09137 3.94236 1.89102 4.51223C1.69066 5.08209 1.99021 5.70648 2.56008 5.90684L2.92285 4.875L3.28562 3.84316ZM6.69387 6.80435L7.59691 6.18725L7.59691 6.18725L6.69387 6.80435ZM8.59244 21.7715L7.79872 22.524H7.79872L8.59244 21.7715ZM30.1321 14.9123L31.2034 15.1331L31.2047 15.1264L30.1321 14.9123ZM29.4033 18.4484L30.4745 18.6692L29.4033 18.4484ZM30.244 10.2666L29.3771 10.9335V10.9335L30.244 10.2666ZM27.9094 22.4485L27.2184 21.6006L27.9094 22.4485ZM7.23672 14.7333H8.33047V10.7643H7.23672H6.14297V14.7333H7.23672ZM3.30378 5.00893L3.66655 3.97709L3.28562 3.84316L2.92285 4.875L2.56008 5.90684L2.94101 6.04076L3.30378 5.00893ZM15.9567 23.1042V24.1979H23.69V23.1042V22.0104H15.9567V23.1042ZM7.23672 10.7643H8.33047C8.33047 9.733 8.33195 8.87243 8.25626 8.17312C8.1779 7.44923 8.00813 6.78902 7.59691 6.18725L6.69387 6.80435L5.79083 7.42144C5.92246 7.61407 6.02411 7.87864 6.08146 8.40853C6.14148 8.96299 6.14297 9.68519 6.14297 10.7643H7.23672ZM3.30378 5.00893L2.94101 6.04076C3.91461 6.38306 4.55445 6.6099 5.02527 6.84091C5.46747 7.05789 5.66241 7.23352 5.79083 7.42144L6.69387 6.80435L7.59691 6.18725C7.18248 5.58079 6.63145 5.19238 5.98886 4.87708C5.37488 4.57582 4.59111 4.30215 3.66655 3.97709L3.30378 5.00893ZM7.23672 14.7333H6.14297C6.14297 16.8516 6.16284 18.379 6.36271 19.546C6.5761 20.7919 7.00212 21.6838 7.79872 22.524L8.59244 21.7715L9.38616 21.019C8.91925 20.5265 8.66741 20.0443 8.51882 19.1767C8.35671 18.2302 8.33047 16.9048 8.33047 14.7333H7.23672ZM15.9567 23.1042V22.0104C13.8905 22.0104 12.4569 22.0078 11.3767 21.8547C10.3343 21.7068 9.78362 21.4382 9.38616 21.019L8.59244 21.7715L7.79872 22.524C8.66476 23.4375 9.76261 23.8352 11.0696 24.0205C12.3389 24.2005 13.9557 24.1979 15.9567 24.1979V23.1042ZM7.23672 9.425V10.5187H24.9274V9.425V8.33125H7.23672V9.425ZM30.1321 14.9123L29.0609 14.6916L28.3321 18.2276L29.4033 18.4484L30.4745 18.6692L31.2033 15.1331L30.1321 14.9123ZM24.9274 9.425V10.5187C26.1763 10.5187 27.2754 10.5202 28.1429 10.6172C28.5739 10.6654 28.8965 10.7323 29.1231 10.8119C29.3585 10.8947 29.396 10.9581 29.3771 10.9335L30.244 10.2666L31.1109 9.59968C30.7683 9.15427 30.2865 8.90212 29.8483 8.74814C29.4013 8.59109 28.8959 8.50023 28.3859 8.44322C27.3712 8.32979 26.1357 8.33125 24.9274 8.33125V9.425ZM30.1321 14.9123L31.2047 15.1264C31.4515 13.8899 31.661 12.8524 31.7123 12.0214C31.7651 11.1665 31.6678 10.3236 31.1109 9.59968L30.244 10.2666L29.3771 10.9335C29.4676 11.0512 29.5675 11.263 29.529 11.8866C29.489 12.534 29.3189 13.3986 29.0595 14.6983L30.1321 14.9123ZM23.69 23.1042V24.1979C24.8009 24.1979 25.7331 24.1998 26.4845 24.1079C27.2658 24.0122 27.9783 23.8032 28.6003 23.2964L27.9094 22.4485L27.2184 21.6006C27.0358 21.7494 26.7769 21.8683 26.2188 21.9366C25.6309 22.0085 24.8557 22.0104 23.69 22.0104V23.1042ZM29.4033 18.4484L28.3321 18.2276C28.0967 19.3692 27.9384 20.1281 27.7492 20.6894C27.5697 21.2222 27.401 21.4518 27.2184 21.6006L27.9094 22.4485L28.6003 23.2964C29.2223 22.7895 29.5708 22.1339 29.8222 21.388C30.064 20.6705 30.2503 19.7572 30.4745 18.6692L29.4033 18.4484Z" fill="#162D42"/>
</svg>
