<svg width="31" height="30" viewBox="0 0 31 30" fill="none" xmlns="http://www.w3.org/2000/svg">
<path fill-rule="evenodd" clip-rule="evenodd" d="M30.0895 14.9998C30.0895 23.054 23.5603 29.5832 15.5062 29.5832C7.45203 29.5832 0.922852 23.054 0.922852 14.9998C0.922852 6.94568 7.45203 0.416504 15.5062 0.416504C23.5603 0.416504 30.0895 6.94568 30.0895 14.9998ZM19.8812 10.6248C19.8812 13.0411 17.9224 14.9998 15.5062 14.9998C13.0899 14.9998 11.1312 13.0411 11.1312 10.6248C11.1312 8.20859 13.0899 6.24984 15.5062 6.24984C17.9224 6.24984 19.8812 8.20859 19.8812 10.6248ZM15.5062 27.3957C18.1079 27.3957 20.5224 26.5941 22.5163 25.2245C23.3969 24.6196 23.7733 23.4673 23.2613 22.5296C22.1999 20.5856 20.0128 19.3748 15.5061 19.3748C10.9995 19.3748 8.81239 20.5856 7.75097 22.5295C7.23896 23.4672 7.61529 24.6195 8.49591 25.2244C10.4898 26.5941 12.9044 27.3957 15.5062 27.3957Z" fill="#162D42"/>
</svg>
